<svg width="1062" height="363" viewBox="0 0 1062 363" fill="none" xmlns="http://www.w3.org/2000/svg">
<path d="M531 0.5C677.591 0.5 810.284 20.81 906.312 53.6328C954.328 70.0451 993.15 89.5774 1019.96 111.241C1046.77 132.908 1061.5 156.654 1061.5 181.5C1061.5 206.346 1046.77 230.092 1019.96 251.759C993.15 273.423 954.328 292.955 906.312 309.367C810.284 342.19 677.591 362.5 531 362.5C384.409 362.5 251.716 342.19 155.688 309.367C107.672 292.955 68.8504 273.423 42.043 251.759C15.2313 230.092 0.5 206.346 0.5 181.5C0.5 156.654 15.2313 132.908 42.043 111.241C68.8504 89.5774 107.672 70.0451 155.688 53.6328C251.716 20.81 384.409 0.5 531 0.5Z" stroke="white"/>
</svg>
