<svg width="56" height="45" viewBox="0 0 56 45" fill="none" xmlns="http://www.w3.org/2000/svg">
<mask id="path-1-outside-1_30_89" maskUnits="userSpaceOnUse" x="-0.674194" y="-0.700195" width="56" height="46" fill="black">
<rect fill="white" x="-0.674194" y="-0.700195" width="56" height="46"/>
<path d="M20.5 43.8998H0.500025V27.8998L12.3 0.499792H21.3L11.5 23.8998H20.5V43.8998ZM53.7 43.8998H33.7V27.8998L45.5 0.499792H54.5L44.7 23.8998H53.7V43.8998Z"/>
</mask>
<path d="M20.5 43.8998H0.500025V27.8998L12.3 0.499792H21.3L11.5 23.8998H20.5V43.8998ZM53.7 43.8998H33.7V27.8998L45.5 0.499792H54.5L44.7 23.8998H53.7V43.8998Z" fill="url(#paint0_linear_30_89)" fill-opacity="0.2"/>
<path d="M20.5 43.8998V44.3998H21V43.8998H20.5ZM0.500025 43.8998H2.47955e-05V44.3998H0.500025V43.8998ZM0.500025 27.8998L0.0408001 27.702L2.47955e-05 27.7967V27.8998H0.500025ZM12.3 0.499786V-0.000213623H11.971L11.8408 0.302017L12.3 0.499786ZM21.3 0.499786L21.7612 0.692932L22.0515 -0.000213623H21.3V0.499786ZM11.5 23.8998L11.0388 23.7066L10.7485 24.3998H11.5V23.8998ZM20.5 23.8998H21V23.3998H20.5V23.8998ZM53.7 43.8998V44.3998H54.2V43.8998H53.7ZM33.7 43.8998H33.2V44.3998H33.7V43.8998ZM33.7 27.8998L33.2408 27.702L33.2 27.7967V27.8998H33.7ZM45.5 0.499786V-0.000213623H45.171L45.0408 0.302017L45.5 0.499786ZM54.5 0.499786L54.9612 0.692932L55.2515 -0.000213623H54.5V0.499786ZM44.7 23.8998L44.2388 23.7066L43.9485 24.3998H44.7V23.8998ZM53.7 23.8998H54.2V23.3998H53.7V23.8998ZM20.5 43.8998V43.3998H0.500025V43.8998V44.3998H20.5V43.8998ZM0.500025 43.8998H1.00002V27.8998H0.500025H2.47955e-05V43.8998H0.500025ZM0.500025 27.8998L0.959249 28.0976L12.7593 0.697556L12.3 0.499786L11.8408 0.302017L0.0408001 27.702L0.500025 27.8998ZM12.3 0.499786V0.999786H21.3V0.499786V-0.000213623H12.3V0.499786ZM21.3 0.499786L20.8388 0.306641L11.0388 23.7066L11.5 23.8998L11.9612 24.0929L21.7612 0.692932L21.3 0.499786ZM11.5 23.8998V24.3998H20.5V23.8998V23.3998H11.5V23.8998ZM20.5 23.8998H20V43.8998H20.5H21V23.8998H20.5ZM53.7 43.8998V43.3998H33.7V43.8998V44.3998H53.7V43.8998ZM33.7 43.8998H34.2V27.8998H33.7H33.2V43.8998H33.7ZM33.7 27.8998L34.1593 28.0976L45.9593 0.697556L45.5 0.499786L45.0408 0.302017L33.2408 27.702L33.7 27.8998ZM45.5 0.499786V0.999786H54.5V0.499786V-0.000213623H45.5V0.499786ZM54.5 0.499786L54.0388 0.306641L44.2388 23.7066L44.7 23.8998L45.1612 24.0929L54.9612 0.692932L54.5 0.499786ZM44.7 23.8998V24.3998H53.7V23.8998V23.3998H44.7V23.8998ZM53.7 23.8998H53.2V43.8998H53.7H54.2V23.8998H53.7Z" fill="white" mask="url(#path-1-outside-1_30_89)"/>
<defs>
<linearGradient id="paint0_linear_30_89" x1="-14.6742" y1="83.7998" x2="71.3258" y2="83.7998" gradientUnits="userSpaceOnUse">
<stop stop-color="#FFDE96"/>
<stop offset="0.317308" stop-color="white"/>
<stop offset="0.658654" stop-color="#F4C45B"/>
</linearGradient>
</defs>
</svg>
