<svg width="56" height="45" viewBox="0 0 56 45" fill="none" xmlns="http://www.w3.org/2000/svg">
<mask id="path-1-outside-1_30_94" maskUnits="userSpaceOnUse" x="-0.422729" y="-0.700195" width="56" height="46" fill="black">
<rect fill="white" x="-0.422729" y="-0.700195" width="56" height="46"/>
<path d="M1.55149 0.499792H21.5515V16.4998L9.75149 43.8998H0.75149L10.5515 20.4998H1.55149V0.499792ZM34.7515 0.499792H54.7515V16.4998L42.9515 43.8998H33.9515L43.7515 20.4998H34.7515V0.499792Z"/>
</mask>
<path d="M1.55149 0.499792H21.5515V16.4998L9.75149 43.8998H0.75149L10.5515 20.4998H1.55149V0.499792ZM34.7515 0.499792H54.7515V16.4998L42.9515 43.8998H33.9515L43.7515 20.4998H34.7515V0.499792Z" fill="url(#paint0_linear_30_94)" fill-opacity="0.2"/>
<path d="M1.55149 0.499786V-0.000213623H1.05149V0.499786H1.55149ZM21.5515 0.499786H22.0515V-0.000213623H21.5515V0.499786ZM21.5515 16.4998L22.0107 16.6976L22.0515 16.6029V16.4998H21.5515ZM9.75149 43.8998V44.3998H10.0806L10.2107 44.0976L9.75149 43.8998ZM0.75149 43.8998L0.290301 43.7066L9.53674e-06 44.3998H0.75149V43.8998ZM10.5515 20.4998L11.0127 20.6929L11.303 19.9998H10.5515V20.4998ZM1.55149 20.4998H1.05149V20.9998H1.55149V20.4998ZM34.7515 0.499786V-0.000213623H34.2515V0.499786H34.7515ZM54.7515 0.499786H55.2515V-0.000213623H54.7515V0.499786ZM54.7515 16.4998L55.2107 16.6976L55.2515 16.6029V16.4998H54.7515ZM42.9515 43.8998V44.3998H43.2806L43.4107 44.0976L42.9515 43.8998ZM33.9515 43.8998L33.4903 43.7066L33.2 44.3998H33.9515V43.8998ZM43.7515 20.4998L44.2127 20.6929L44.503 19.9998H43.7515V20.4998ZM34.7515 20.4998H34.2515V20.9998H34.7515V20.4998ZM1.55149 0.499786V0.999786H21.5515V0.499786V-0.000213623H1.55149V0.499786ZM21.5515 0.499786H21.0515V16.4998H21.5515H22.0515V0.499786H21.5515ZM21.5515 16.4998L21.0923 16.302L9.29226 43.702L9.75149 43.8998L10.2107 44.0976L22.0107 16.6976L21.5515 16.4998ZM9.75149 43.8998V43.3998H0.75149V43.8998V44.3998H9.75149V43.8998ZM0.75149 43.8998L1.21268 44.0929L11.0127 20.6929L10.5515 20.4998L10.0903 20.3067L0.290301 43.7066L0.75149 43.8998ZM10.5515 20.4998V19.9998H1.55149V20.4998V20.9998H10.5515V20.4998ZM1.55149 20.4998H2.05149V0.499786H1.55149H1.05149V20.4998H1.55149ZM34.7515 0.499786V0.999786H54.7515V0.499786V-0.000213623H34.7515V0.499786ZM54.7515 0.499786H54.2515V16.4998H54.7515H55.2515V0.499786H54.7515ZM54.7515 16.4998L54.2923 16.302L42.4923 43.702L42.9515 43.8998L43.4107 44.0976L55.2107 16.6976L54.7515 16.4998ZM42.9515 43.8998V43.3998H33.9515V43.8998V44.3998H42.9515V43.8998ZM33.9515 43.8998L34.4127 44.0929L44.2127 20.6929L43.7515 20.4998L43.2903 20.3067L33.4903 43.7066L33.9515 43.8998ZM43.7515 20.4998V19.9998H34.7515V20.4998V20.9998H43.7515V20.4998ZM34.7515 20.4998H35.2515V0.499786H34.7515H34.2515V20.4998H34.7515Z" fill="white" mask="url(#path-1-outside-1_30_94)"/>
<defs>
<linearGradient id="paint0_linear_30_94" x1="-14.4227" y1="83.7998" x2="71.5773" y2="83.7998" gradientUnits="userSpaceOnUse">
<stop stop-color="#FFDE96"/>
<stop offset="0.317308" stop-color="white"/>
<stop offset="0.658654" stop-color="#F4C45B"/>
</linearGradient>
</defs>
</svg>
