<svg width="1060" height="362" viewBox="0 0 1060 362" fill="none" xmlns="http://www.w3.org/2000/svg">
<path d="M530 0.5C676.316 0.5 808.759 20.7548 904.605 53.4873C952.531 69.8543 991.279 89.3316 1018.04 110.936C1044.8 132.543 1059.5 156.223 1059.5 181C1059.5 205.777 1044.8 229.457 1018.04 251.064C991.279 272.668 952.531 292.146 904.605 308.513C808.759 341.245 676.316 361.5 530 361.5C383.684 361.5 251.241 341.245 155.395 308.513C107.469 292.146 68.7206 272.668 41.9639 251.064C15.2027 229.457 0.5 205.777 0.5 181C0.5 156.223 15.2027 132.543 41.9639 110.936C68.7206 89.3316 107.469 69.8543 155.395 53.4873C251.241 20.7548 383.684 0.5 530 0.5Z" stroke="white"/>
</svg>
